<svg width="112" height="32" viewBox="0 0 112 32" fill="none" xmlns="http://www.w3.org/2000/svg">
<path d="M44.432 22L43.6 19.28H39.44L38.608 22H36L40.032 10.528H42.992L47.04 22H44.432ZM42.192 14.592C42.1387 14.4107 42.0693 14.1813 41.984 13.904C41.8987 13.6267 41.8133 13.344 41.728 13.056C41.6427 12.768 41.5733 12.5173 41.52 12.304C41.4667 12.5173 41.392 12.784 41.296 13.104C41.2107 13.4133 41.1253 13.712 41.04 14C40.9653 14.2773 40.9067 14.4747 40.864 14.592L40.048 17.248H43.024L42.192 14.592ZM49.7189 12.672C49.7189 13.0027 49.7082 13.328 49.6869 13.648C49.6655 13.968 49.6442 14.2187 49.6229 14.4H49.7189C49.9535 14.0373 50.2682 13.7333 50.6629 13.488C51.0575 13.232 51.5695 13.104 52.1989 13.104C53.1802 13.104 53.9749 13.488 54.5829 14.256C55.1909 15.0133 55.4949 16.1333 55.4949 17.616C55.4949 18.608 55.3509 19.4453 55.0629 20.128C54.7855 20.8 54.3962 21.3067 53.8949 21.648C53.3935 21.9893 52.8069 22.16 52.1349 22.16C51.4949 22.16 50.9882 22.048 50.6149 21.824C50.2522 21.5893 49.9535 21.328 49.7189 21.04H49.5589L49.1589 22H47.3349V9.84H49.7189V12.672ZM51.4309 15.008C51.0149 15.008 50.6842 15.0933 50.4389 15.264C50.1935 15.4347 50.0122 15.696 49.8949 16.048C49.7882 16.3893 49.7295 16.8213 49.7189 17.344V17.6C49.7189 18.4427 49.8415 19.0933 50.0869 19.552C50.3429 20 50.8015 20.224 51.4629 20.224C51.9535 20.224 52.3429 20 52.6309 19.552C52.9189 19.0933 53.0629 18.4373 53.0629 17.584C53.0629 16.7307 52.9135 16.0907 52.6149 15.664C52.3269 15.2267 51.9322 15.008 51.4309 15.008ZM62.5959 19.408C62.5959 19.9947 62.4572 20.496 62.1799 20.912C61.9025 21.3173 61.4865 21.6267 60.9319 21.84C60.3772 22.0533 59.6892 22.16 58.8679 22.16C58.2599 22.16 57.7372 22.1173 57.2999 22.032C56.8625 21.9573 56.4252 21.8293 55.9879 21.648V19.68C56.4572 19.8933 56.9639 20.0693 57.5079 20.208C58.0519 20.3467 58.5319 20.416 58.9479 20.416C59.4172 20.416 59.7479 20.3467 59.9399 20.208C60.1425 20.0693 60.2439 19.888 60.2439 19.664C60.2439 19.5147 60.2012 19.3813 60.1159 19.264C60.0412 19.1467 59.8705 19.0133 59.6039 18.864C59.3372 18.7147 58.9212 18.5227 58.3559 18.288C57.8119 18.0533 57.3639 17.824 57.0119 17.6C56.6599 17.3653 56.3985 17.088 56.2279 16.768C56.0572 16.4373 55.9719 16.0267 55.9719 15.536C55.9719 14.7253 56.2865 14.1173 56.9159 13.712C57.5452 13.3067 58.3825 13.104 59.4279 13.104C59.9719 13.104 60.4892 13.1573 60.9799 13.264C61.4705 13.3707 61.9772 13.5467 62.4999 13.792L61.7799 15.504C61.4919 15.376 61.2145 15.264 60.9479 15.168C60.6812 15.072 60.4199 14.9973 60.1639 14.944C59.9185 14.8907 59.6625 14.864 59.3959 14.864C59.0439 14.864 58.7772 14.912 58.5959 15.008C58.4252 15.104 58.3399 15.248 58.3399 15.44C58.3399 15.5787 58.3825 15.7067 58.4679 15.824C58.5639 15.9307 58.7399 16.048 58.9959 16.176C59.2625 16.304 59.6519 16.4747 60.1639 16.688C60.6652 16.8907 61.0972 17.104 61.4599 17.328C61.8225 17.5413 62.0999 17.8133 62.2919 18.144C62.4945 18.464 62.5959 18.8853 62.5959 19.408ZM67.173 20.256C67.4397 20.256 67.6957 20.2293 67.941 20.176C68.1863 20.1227 68.4317 20.0587 68.677 19.984V21.76C68.421 21.8667 68.101 21.9573 67.717 22.032C67.3437 22.1173 66.933 22.16 66.485 22.16C65.9623 22.16 65.493 22.0747 65.077 21.904C64.6717 21.7333 64.3463 21.44 64.101 21.024C63.8663 20.5973 63.749 20.0107 63.749 19.264V15.056H62.613V14.048L63.925 13.248L64.613 11.408H66.133V13.264H68.581V15.056H66.133V19.264C66.133 19.5947 66.229 19.8453 66.421 20.016C66.613 20.176 66.8637 20.256 67.173 20.256ZM74.3505 13.104C74.4678 13.104 74.6065 13.1093 74.7665 13.12C74.9265 13.1307 75.0545 13.1467 75.1505 13.168L74.9745 15.408C74.8998 15.3867 74.7878 15.3707 74.6385 15.36C74.4998 15.3387 74.3772 15.328 74.2705 15.328C73.9612 15.328 73.6625 15.3707 73.3745 15.456C73.0865 15.5307 72.8252 15.6533 72.5905 15.824C72.3665 15.9947 72.1852 16.224 72.0465 16.512C71.9185 16.7893 71.8545 17.136 71.8545 17.552V22H69.4705V13.264H71.2785L71.6305 14.736H71.7425C71.9132 14.4373 72.1265 14.1653 72.3825 13.92C72.6385 13.6747 72.9318 13.4773 73.2625 13.328C73.6038 13.1787 73.9665 13.104 74.3505 13.104ZM79.0476 13.088C80.221 13.088 81.117 13.344 81.7356 13.856C82.365 14.3573 82.6796 15.1307 82.6796 16.176V22H81.0156L80.5516 20.816H80.4876C80.2423 21.1253 79.9863 21.3813 79.7196 21.584C79.4636 21.7867 79.165 21.9307 78.8236 22.016C78.493 22.112 78.0823 22.16 77.5916 22.16C77.0796 22.16 76.6156 22.064 76.1996 21.872C75.7943 21.6693 75.4743 21.3653 75.2396 20.96C75.005 20.544 74.8876 20.0213 74.8876 19.392C74.8876 18.464 75.213 17.7813 75.8636 17.344C76.5143 16.896 77.4903 16.6507 78.7916 16.608L80.3116 16.56V16.176C80.3116 15.7173 80.189 15.3813 79.9436 15.168C79.709 14.9547 79.3783 14.848 78.9516 14.848C78.525 14.848 78.109 14.912 77.7036 15.04C77.2983 15.1573 76.893 15.3067 76.4876 15.488L75.7036 13.872C76.173 13.6267 76.6903 13.4347 77.2556 13.296C77.8316 13.1573 78.429 13.088 79.0476 13.088ZM79.3836 17.984C78.6156 18.0053 78.0823 18.144 77.7836 18.4C77.485 18.656 77.3356 18.992 77.3356 19.408C77.3356 19.7707 77.4423 20.032 77.6556 20.192C77.869 20.3413 78.1463 20.416 78.4876 20.416C78.9996 20.416 79.4316 20.2667 79.7836 19.968C80.1356 19.6587 80.3116 19.2267 80.3116 18.672V17.952L79.3836 17.984ZM87.7119 22.16C86.8479 22.16 86.1119 22.0053 85.5039 21.696C84.8959 21.376 84.4319 20.8853 84.1119 20.224C83.7919 19.5627 83.6319 18.7147 83.6319 17.68C83.6319 16.6133 83.8132 15.744 84.1759 15.072C84.5385 14.4 85.0399 13.904 85.6799 13.584C86.3305 13.264 87.0772 13.104 87.9199 13.104C88.5172 13.104 89.0345 13.1627 89.4719 13.28C89.9199 13.3973 90.3092 13.536 90.6399 13.696L89.9359 15.536C89.5625 15.3867 89.2105 15.264 88.8799 15.168C88.5599 15.072 88.2399 15.024 87.9199 15.024C87.5039 15.024 87.1572 15.1253 86.8799 15.328C86.6025 15.52 86.3945 15.8133 86.2559 16.208C86.1279 16.592 86.0639 17.0773 86.0639 17.664C86.0639 18.24 86.1332 18.72 86.2719 19.104C86.4212 19.4773 86.6345 19.76 86.9119 19.952C87.1892 20.1333 87.5252 20.224 87.9199 20.224C88.4212 20.224 88.8639 20.16 89.2479 20.032C89.6319 19.8933 90.0052 19.7067 90.3679 19.472V21.504C90.0052 21.7387 89.6212 21.904 89.2159 22C88.8212 22.1067 88.3199 22.16 87.7119 22.16ZM95.0986 20.256C95.3653 20.256 95.6213 20.2293 95.8666 20.176C96.112 20.1227 96.3573 20.0587 96.6026 19.984V21.76C96.3466 21.8667 96.0266 21.9573 95.6426 22.032C95.2693 22.1173 94.8586 22.16 94.4106 22.16C93.888 22.16 93.4186 22.0747 93.0026 21.904C92.5973 21.7333 92.272 21.44 92.0266 21.024C91.792 20.5973 91.6746 20.0107 91.6746 19.264V15.056H90.5386V14.048L91.8506 13.248L92.5386 11.408H94.0586V13.264H96.5066V15.056H94.0586V19.264C94.0586 19.5947 94.1546 19.8453 94.3466 20.016C94.5386 20.176 94.7893 20.256 95.0986 20.256ZM99.7801 22H97.3961V9.84H99.7801V22ZM100.063 13.264H102.671L104.319 18.176C104.372 18.336 104.415 18.496 104.447 18.656C104.49 18.816 104.522 18.9813 104.543 19.152C104.575 19.3227 104.596 19.504 104.607 19.696H104.655C104.687 19.4187 104.73 19.1573 104.783 18.912C104.847 18.656 104.916 18.4107 104.991 18.176L106.607 13.264H109.167L105.471 23.12C105.247 23.7173 104.954 24.2187 104.591 24.624C104.239 25.0293 103.828 25.3333 103.359 25.536C102.89 25.7387 102.378 25.84 101.823 25.84C101.556 25.84 101.322 25.824 101.119 25.792C100.927 25.7707 100.756 25.744 100.607 25.712V23.824C100.724 23.8453 100.863 23.8667 101.023 23.888C101.194 23.9093 101.37 23.92 101.551 23.92C101.882 23.92 102.164 23.8507 102.399 23.712C102.644 23.5733 102.847 23.3813 103.007 23.136C103.167 22.9013 103.295 22.6453 103.391 22.368L103.535 21.936L100.063 13.264Z" fill="#171717"/>
<path fill-rule="evenodd" clip-rule="evenodd" d="M11.5006 23.8999H20.8638L21.7445 26.5H10.6199L11.5006 23.8999ZM4.26556 26.499L11.8635 5.5H4.33333C3.04467 5.5 2 6.54467 2 7.83333V24.1667C2 25.4327 3.00824 26.4632 4.26556 26.499ZM28.1524 26.4494C29.2079 26.2259 30 25.2888 30 24.1667V7.83333C30 6.54467 28.9553 5.5 27.6667 5.5H20.5724L28.1524 26.4494ZM16.1822 9.99793L19.2914 19.1825H13.1088L16.1822 9.99793Z" fill="#6366F1"/>
</svg>
